<svg width="22" height="27" viewBox="0 0 22 27" fill="none" xmlns="http://www.w3.org/2000/svg">
<path d="M11 0C8.08262 0 5.28473 1.13785 3.22183 3.16324C1.15893 5.18862 0 7.93564 0 10.8C0 18.0899 9.69375 26.3249 10.1063 26.6759C10.3553 26.8851 10.6723 27 11 27C11.3277 27 11.6447 26.8851 11.8937 26.6759C12.375 26.3249 22 18.0899 22 10.8C22 7.93564 20.8411 5.18862 18.7782 3.16324C16.7153 1.13785 13.9174 0 11 0ZM11 23.8274C8.07125 21.1274 2.75 15.309 2.75 10.8C2.75 8.65172 3.61919 6.59146 5.16637 5.07242C6.71354 3.55338 8.81196 2.69999 11 2.69999C13.188 2.69999 15.2865 3.55338 16.8336 5.07242C18.3808 6.59146 19.25 8.65172 19.25 10.8C19.25 15.309 13.9288 21.1409 11 23.8274ZM11 5.39998C9.9122 5.39998 8.84883 5.71669 7.94436 6.31004C7.03989 6.9034 6.33494 7.74676 5.91866 8.73348C5.50238 9.7202 5.39346 10.806 5.60568 11.8534C5.8179 12.9009 6.34172 13.8631 7.11091 14.6183C7.8801 15.3735 8.86011 15.8878 9.927 16.0962C10.9939 16.3045 12.0998 16.1976 13.1048 15.7889C14.1098 15.3802 14.9687 14.6881 15.5731 13.8C16.1774 12.912 16.5 11.868 16.5 10.8C16.5 9.3678 15.9205 7.99429 14.8891 6.9816C13.8576 5.96891 12.4587 5.39998 11 5.39998ZM11 13.5C10.4561 13.5 9.92442 13.3416 9.47218 13.0449C9.01995 12.7482 8.66747 12.3266 8.45933 11.8332C8.25119 11.3398 8.19673 10.797 8.30284 10.2732C8.40895 9.74948 8.67086 9.26838 9.05546 8.89078C9.44005 8.51318 9.93005 8.25603 10.4635 8.15185C10.9969 8.04767 11.5499 8.10114 12.0524 8.3055C12.5549 8.50985 12.9844 8.85592 13.2865 9.29993C13.5887 9.74394 13.75 10.266 13.75 10.8C13.75 11.516 13.4603 12.2028 12.9445 12.7091C12.4288 13.2155 11.7293 13.5 11 13.5Z" fill="black"/>
</svg>
