<svg width="32" height="48" viewBox="0 0 32 48" fill="none" xmlns="http://www.w3.org/2000/svg">
<path d="M16.005 23.0072C22.0821 23.0072 27.0086 18.0807 27.0086 12.0036C27.0086 5.92648 22.0821 1 16.005 1C9.92783 1 5.00134 5.92648 5.00134 12.0036C5.00134 18.0807 9.92783 23.0072 16.005 23.0072Z" stroke="#F63E3E" stroke-miterlimit="10"/>
<path d="M16.0049 17.0053C18.7673 17.0053 21.0066 14.766 21.0066 12.0036C21.0066 9.24129 18.7673 7.00198 16.0049 7.00198C13.2426 7.00198 11.0033 9.24129 11.0033 12.0036C11.0033 14.766 13.2426 17.0053 16.0049 17.0053Z" stroke="#F63E3E" stroke-miterlimit="10"/>
<path d="M26.2483 24.3277C23.2879 26.5406 19.691 27.7363 15.9949 27.7363C12.2989 27.7363 8.70197 26.5406 5.74156 24.3277C5.30967 23.9931 4.79315 23.7855 4.24989 23.7281C3.70663 23.6706 3.1581 23.7656 2.6658 24.0024C2.17351 24.2392 1.75689 24.6085 1.46267 25.0688C1.16844 25.529 1.00823 26.0622 1 26.6084C1.00586 27.3308 1.1919 28.0403 1.54125 28.6726C1.8906 29.305 2.39223 29.8401 3.00066 30.2296C4.85686 31.4607 6.87741 32.4238 9.00263 33.0905C9.99991 33.3952 11.0156 33.6357 12.0436 33.8108L4.00098 41.5333C3.4067 42.1488 3.08127 42.9752 3.09628 43.8306C3.11129 44.6861 3.46551 45.5005 4.08101 46.0948C4.69652 46.6891 5.52289 47.0145 6.37833 46.9995C7.23378 46.9845 8.04823 46.6303 8.64251 46.0148L16.0049 38.4323L23.3673 46.0148C23.9616 46.6303 24.7761 46.9845 25.6315 46.9995C26.487 47.0145 27.3133 46.6891 27.9288 46.0948C28.5443 45.5005 28.8986 44.6861 28.9136 43.8306C28.9286 42.9752 28.6031 42.1488 28.0089 41.5333L20.0062 33.7908C21.0342 33.6157 22.05 33.3752 23.0472 33.0705C25.1724 32.4038 27.193 31.4407 29.0492 30.2096C29.6576 29.8201 30.1593 29.285 30.5086 28.6526C30.858 28.0203 31.044 27.3108 31.0499 26.5884C31.0467 26.0333 30.8865 25.4904 30.5877 25.0225C30.289 24.5547 29.864 24.1809 29.3617 23.9444C28.8595 23.708 28.3006 23.6185 27.7496 23.6863C27.1987 23.7541 26.6782 23.9765 26.2483 24.3277Z" stroke="#F63E3E" stroke-linecap="round" stroke-linejoin="round"/>
</svg>
