<svg width="46" height="46" viewBox="0 0 46 46" fill="none" xmlns="http://www.w3.org/2000/svg">
<path d="M30.0678 0H15.9562C3.06661 0 0 3.06661 0 15.9322V30.0437C0 42.9332 3.04276 46 15.9322 46H30.0437C42.9334 46 46 42.9572 46 30.0676V15.9562C46 3.06661 42.9572 0 30.0678 0ZM37.1354 32.8229H33.7812C32.5115 32.8229 32.1281 31.7926 29.8521 29.5166C27.8635 27.6 27.025 27.3604 26.5219 27.3604C25.8271 27.3604 25.6354 27.552 25.6354 28.5104V31.5291C25.6354 32.3437 25.3719 32.8229 23.2396 32.8229C21.1705 32.6838 19.164 32.0553 17.3854 30.9889C15.6068 29.9226 14.107 28.449 13.0094 26.6895C10.4037 23.4463 8.59074 19.6398 7.71464 15.5729C7.71464 15.0697 7.90625 14.6145 8.86464 14.6145H12.2187C13.0812 14.6145 13.3928 14.9979 13.7281 15.8844C15.3572 20.676 18.1365 24.8447 19.2625 24.8447C19.6937 24.8447 19.8854 24.6531 19.8854 23.575V18.6395C19.7416 16.3875 18.5437 16.1957 18.5437 15.3812C18.5595 15.1664 18.6584 14.9661 18.8195 14.8229C18.9805 14.6798 19.191 14.605 19.4062 14.6145H24.6771C25.3959 14.6145 25.6354 14.9739 25.6354 15.8364V22.4969C25.6354 23.2156 25.9469 23.4551 26.1625 23.4551C26.5937 23.4551 26.9291 23.2156 27.7197 22.425C29.4187 20.3531 30.8069 18.0448 31.8406 15.5729C31.9461 15.2754 32.1461 15.0207 32.41 14.8476C32.674 14.6746 32.9873 14.5927 33.3021 14.6145H36.6562C37.6625 14.6145 37.8781 15.1176 37.6625 15.8364C36.442 18.5695 34.932 21.1639 33.1584 23.575C32.799 24.126 32.6553 24.4135 33.1584 25.0604C33.4938 25.5635 34.6678 26.5457 35.4584 27.4801C36.6084 28.6272 37.5632 29.9544 38.2854 31.4094C38.5729 32.3437 38.0937 32.8229 37.1354 32.8229Z" fill="#F63E3E"/>
</svg>
