<svg width="46" height="46" viewBox="0 0 46 46" fill="none" xmlns="http://www.w3.org/2000/svg">
<g clip-path="url(#clip0_19_858)">
<path d="M8.15065 0C3.63547 0 0 3.63547 0 8.15065V37.8494C0 42.3646 3.63547 46 8.15065 46H30.0093L46 23.0058L30.0093 4.6e-05H8.15065V0ZM20.391 8.3979H25.5846C25.9035 8.3979 26.0863 8.51451 26.0863 8.7889V37.4124C26.0863 37.6072 25.9946 37.7243 25.7212 37.7243H22.8965C22.7155 37.7243 22.5788 37.5681 22.5788 37.4512V26.8539H20.2989L13.9667 37.4512C13.8759 37.6462 13.6939 37.7243 13.4205 37.7243H10.1861C9.8227 37.7243 9.59482 37.4512 9.82243 37.099L16.7914 26.3062C13.0568 24.8986 10.9609 22.0441 10.9609 18.1729C10.9609 11.7207 15.2891 8.39785 20.3909 8.39785L20.391 8.3979ZM20.2544 10.8991C17.4754 10.8991 14.7416 12.8933 14.7416 17.7819C14.7416 22.4744 17.6575 24.3513 20.6641 24.3513H22.5788V10.8991H20.2544Z" fill="#F63E3E"/>
</g>
<defs>
<clipPath id="clip0_19_858">
<rect width="46" height="46" fill="white"/>
</clipPath>
</defs>
</svg>
